<?xml version="1.0" encoding="UTF-8"?>
<!DOCTYPE svg PUBLIC "-//W3C//DTD SVG 1.1//EN" "http://www.w3.org/Graphics/SVG/1.1/DTD/svg11.dtd">
<svg version="1.2" width="20mm" height="20mm" viewBox="0 0 2000 2000" preserveAspectRatio="xMidYMid" fill-rule="evenodd" stroke-width="28.222" stroke-linejoin="round" xmlns="http://www.w3.org/2000/svg" xmlns:ooo="http://xml.openoffice.org/svg/export" xmlns:xlink="http://www.w3.org/1999/xlink" xmlns:presentation="http://sun.com/xmlns/staroffice/presentation" xmlns:smil="http://www.w3.org/2001/SMIL20/" xmlns:anim="urn:oasis:names:tc:opendocument:xmlns:animation:1.0" xml:space="preserve">
 <defs class="ClipPathGroup">
  <clipPath id="presentation_clip_path" clipPathUnits="userSpaceOnUse">
   <rect x="0" y="0" width="2000" height="2000"/>
  </clipPath>
  <clipPath id="presentation_clip_path_shrink" clipPathUnits="userSpaceOnUse">
   <rect x="2" y="2" width="1996" height="1996"/>
  </clipPath>
 </defs>
 <defs class="TextShapeIndex">
  <g ooo:slide="id1" ooo:id-list="id3 id4 id5 id6"/>
 </defs>
 <defs class="EmbeddedBulletChars">
  <g id="bullet-char-template-57356" transform="scale(0.00048828125,-0.00048828125)">
   <path d="M 580,1141 L 1163,571 580,0 -4,571 580,1141 Z"/>
  </g>
  <g id="bullet-char-template-57354" transform="scale(0.00048828125,-0.00048828125)">
   <path d="M 8,1128 L 1137,1128 1137,0 8,0 8,1128 Z"/>
  </g>
  <g id="bullet-char-template-10146" transform="scale(0.00048828125,-0.00048828125)">
   <path d="M 174,0 L 602,739 174,1481 1456,739 174,0 Z M 1358,739 L 309,1346 659,739 1358,739 Z"/>
  </g>
  <g id="bullet-char-template-10132" transform="scale(0.00048828125,-0.00048828125)">
   <path d="M 2015,739 L 1276,0 717,0 1260,543 174,543 174,936 1260,936 717,1481 1274,1481 2015,739 Z"/>
  </g>
  <g id="bullet-char-template-10007" transform="scale(0.00048828125,-0.00048828125)">
   <path d="M 0,-2 C -7,14 -16,27 -25,37 L 356,567 C 262,823 215,952 215,954 215,979 228,992 255,992 264,992 276,990 289,987 310,991 331,999 354,1012 L 381,999 492,748 772,1049 836,1024 860,1049 C 881,1039 901,1025 922,1006 886,937 835,863 770,784 769,783 710,716 594,584 L 774,223 C 774,196 753,168 711,139 L 727,119 C 717,90 699,76 672,76 641,76 570,178 457,381 L 164,-76 C 142,-110 111,-127 72,-127 30,-127 9,-110 8,-76 1,-67 -2,-52 -2,-32 -2,-23 -1,-13 0,-2 Z"/>
  </g>
  <g id="bullet-char-template-10004" transform="scale(0.00048828125,-0.00048828125)">
   <path d="M 285,-33 C 182,-33 111,30 74,156 52,228 41,333 41,471 41,549 55,616 82,672 116,743 169,778 240,778 293,778 328,747 346,684 L 369,508 C 377,444 397,411 428,410 L 1163,1116 C 1174,1127 1196,1133 1229,1133 1271,1133 1292,1118 1292,1087 L 1292,965 C 1292,929 1282,901 1262,881 L 442,47 C 390,-6 338,-33 285,-33 Z"/>
  </g>
  <g id="bullet-char-template-9679" transform="scale(0.00048828125,-0.00048828125)">
   <path d="M 813,0 C 632,0 489,54 383,161 276,268 223,411 223,592 223,773 276,916 383,1023 489,1130 632,1184 813,1184 992,1184 1136,1130 1245,1023 1353,916 1407,772 1407,592 1407,412 1353,268 1245,161 1136,54 992,0 813,0 Z"/>
  </g>
  <g id="bullet-char-template-8226" transform="scale(0.00048828125,-0.00048828125)">
   <path d="M 346,457 C 273,457 209,483 155,535 101,586 74,649 74,723 74,796 101,859 155,911 209,963 273,989 346,989 419,989 480,963 531,910 582,859 608,796 608,723 608,648 583,586 532,535 482,483 420,457 346,457 Z"/>
  </g>
  <g id="bullet-char-template-8211" transform="scale(0.00048828125,-0.00048828125)">
   <path d="M -4,459 L 1135,459 1135,606 -4,606 -4,459 Z"/>
  </g>
  <g id="bullet-char-template-61548" transform="scale(0.00048828125,-0.00048828125)">
   <path d="M 173,740 C 173,903 231,1043 346,1159 462,1274 601,1332 765,1332 928,1332 1067,1274 1183,1159 1299,1043 1357,903 1357,740 1357,577 1299,437 1183,322 1067,206 928,148 765,148 601,148 462,206 346,322 231,437 173,577 173,740 Z"/>
  </g>
 </defs>
 <g>
  <g id="id2" class="Master_Slide">
   <g id="bg-id2" class="Background"/>
   <g id="bo-id2" class="BackgroundObjects"/>
  </g>
 </g>
 <g class="SlideGroup">
  <g>
   <g id="container-id1">
    <g id="id1" class="Slide" clip-path="url(#presentation_clip_path)">
     <g class="Page">
      <g class="Group">
       <g class="com.sun.star.drawing.CustomShape">
        <g id="id3">
         <rect class="BoundingBox" stroke="none" fill="none" x="49" y="49" width="1904" height="1904"/>
         <path fill="rgb(225,97,115)" stroke="none" d="M 1951,1001 C 1951,1167 1907,1331 1824,1476 1740,1620 1620,1740 1476,1824 1331,1907 1167,1951 1001,1951 834,1951 670,1907 525,1824 381,1740 261,1620 177,1476 94,1331 50,1167 50,1001 50,834 94,670 177,525 261,381 381,261 525,177 670,94 834,50 1000,50 1167,50 1331,94 1476,177 1620,261 1740,381 1824,525 1907,670 1951,834 1951,1000 L 1951,1001 Z"/>
         <path fill="none" stroke="rgb(225,97,115)" d="M 1951,1001 C 1951,1167 1907,1331 1824,1476 1740,1620 1620,1740 1476,1824 1331,1907 1167,1951 1001,1951 834,1951 670,1907 525,1824 381,1740 261,1620 177,1476 94,1331 50,1167 50,1001 50,834 94,670 177,525 261,381 381,261 525,177 670,94 834,50 1000,50 1167,50 1331,94 1476,177 1620,261 1740,381 1824,525 1907,670 1951,834 1951,1000 L 1951,1001 Z"/>
        </g>
       </g>
       <g class="Group">
        <g class="com.sun.star.drawing.ClosedBezierShape">
         <g id="id4">
          <rect class="BoundingBox" stroke="none" fill="none" x="416" y="418" width="1170" height="1166"/>
          <path fill="rgb(255,255,255)" stroke="none" d="M 752,418 L 752,418 1249,418 C 1279,418 1308,422 1336,430 1364,437 1391,448 1417,463 1442,478 1466,496 1486,517 1507,537 1525,560 1540,586 1554,611 1566,639 1573,667 1581,695 1585,724 1585,754 1585,756 1585,758 1584,759 L 1585,1247 C 1585,1247 1585,1247 1585,1247 1585,1277 1581,1306 1573,1334 1566,1362 1554,1389 1540,1415 1525,1440 1507,1464 1486,1484 1466,1505 1442,1523 1417,1538 1391,1552 1364,1564 1336,1571 1308,1579 1279,1583 1249,1583 L 1249,1583 752,1583 C 722,1583 693,1579 665,1571 637,1564 609,1552 584,1538 558,1523 535,1505 514,1484 494,1464 476,1440 461,1415 446,1389 435,1362 428,1334 420,1306 416,1277 416,1247 L 416,1247 416,754 C 416,724 420,695 428,667 435,639 446,611 461,586 476,560 494,537 514,517 535,496 558,478 584,463 609,448 637,437 665,430 693,422 722,418 751,418 752,418 752,418 752,418 Z M 695,543 C 677,548 659,555 643,565 626,574 611,586 597,599 584,613 572,628 563,645 553,661 546,679 541,697 536,716 533,735 533,754 L 533,1247 533,1247 C 533,1266 536,1285 541,1304 546,1322 553,1340 563,1356 572,1373 584,1388 597,1401 611,1415 626,1427 643,1436 659,1446 677,1453 695,1458 713,1463 732,1465 752,1465 L 1249,1465 1249,1465 C 1268,1465 1287,1463 1306,1458 1324,1453 1342,1446 1358,1436 1375,1427 1390,1415 1403,1401 1417,1388 1429,1373 1438,1356 1448,1340 1455,1322 1460,1304 1465,1285 1467,1266 1467,1247 L 1467,754 C 1467,754 1467,754 1467,754 1467,752 1467,750 1467,748 1467,731 1464,714 1460,697 1455,679 1448,661 1438,645 1429,628 1417,613 1403,599 1390,586 1375,574 1358,565 1342,555 1324,548 1306,543 1287,538 1268,536 1249,536 L 752,536 C 732,536 713,538 695,543 Z"/>
         </g>
        </g>
        <g class="com.sun.star.drawing.CustomShape">
         <g id="id5">
          <rect class="BoundingBox" stroke="none" fill="none" x="1233" y="612" width="156" height="156"/>
          <path fill="rgb(255,255,255)" stroke="none" d="M 1387,690 C 1387,703 1383,716 1377,728 1370,739 1360,749 1349,756 1337,762 1324,766 1311,766 1297,766 1284,762 1272,756 1261,749 1251,739 1244,728 1238,716 1234,703 1234,690 1234,676 1238,663 1244,651 1251,640 1261,630 1272,623 1284,617 1297,613 1311,613 1324,613 1337,617 1349,623 1360,630 1370,640 1377,651 1383,663 1387,676 1387,689 L 1387,690 Z"/>
          <path fill="none" stroke="rgb(255,255,255)" d="M 1387,690 C 1387,703 1383,716 1377,728 1370,739 1360,749 1349,756 1337,762 1324,766 1311,766 1297,766 1284,762 1272,756 1261,749 1251,739 1244,728 1238,716 1234,703 1234,690 1234,676 1238,663 1244,651 1251,640 1261,630 1272,623 1284,617 1297,613 1311,613 1324,613 1337,617 1349,623 1360,630 1370,640 1377,651 1383,663 1387,676 1387,689 L 1387,690 Z"/>
         </g>
        </g>
        <g class="com.sun.star.drawing.ClosedBezierShape">
         <g id="id6">
          <rect class="BoundingBox" stroke="none" fill="none" x="704" y="704" width="594" height="594"/>
          <path fill="rgb(255,255,255)" stroke="none" d="M 1287,1077 C 1280,1102 1270,1126 1257,1149 1244,1171 1228,1192 1210,1210 1192,1228 1171,1244 1149,1257 1126,1270 1102,1280 1077,1287 1052,1293 1027,1297 1001,1297 975,1297 949,1293 924,1287 899,1280 875,1270 852,1257 830,1244 809,1228 791,1210 773,1192 757,1171 744,1149 731,1126 721,1102 714,1077 708,1052 704,1027 704,1001 704,975 708,949 714,924 721,899 731,875 744,852 757,830 773,809 791,791 809,773 830,757 852,744 875,731 899,721 924,714 949,708 975,704 1001,704 1027,704 1052,708 1077,714 1102,721 1126,731 1149,744 1171,757 1192,773 1210,791 1228,809 1244,830 1257,852 1270,875 1280,899 1287,924 1293,949 1297,975 1297,1001 1297,1027 1293,1052 1287,1077 Z M 947,799 C 929,804 912,811 896,820 881,829 866,840 853,853 840,866 829,881 820,896 811,912 804,929 799,947 795,964 792,982 792,1001 792,1019 795,1037 799,1054 804,1072 811,1089 820,1105 829,1121 840,1135 853,1148 866,1161 881,1172 896,1181 912,1190 929,1197 947,1202 964,1206 982,1209 1001,1209 1019,1209 1037,1206 1054,1202 1072,1197 1089,1190 1105,1181 1121,1172 1135,1161 1148,1148 1161,1135 1172,1121 1181,1105 1190,1089 1197,1072 1202,1054 1206,1037 1209,1019 1209,1001 1209,982 1206,964 1202,947 1197,929 1190,912 1181,896 1172,881 1161,866 1148,853 1135,840 1121,829 1105,820 1089,811 1072,804 1054,799 1037,795 1019,792 1001,792 982,792 964,795 947,799 Z"/>
         </g>
        </g>
       </g>
      </g>
     </g>
    </g>
   </g>
  </g>
 </g>
</svg>