<?xml version="1.0" encoding="UTF-8"?>
<!DOCTYPE svg PUBLIC "-//W3C//DTD SVG 1.1//EN" "http://www.w3.org/Graphics/SVG/1.1/DTD/svg11.dtd">
<svg version="1.2" width="10mm" height="10mm" viewBox="0 0 1000 1000" preserveAspectRatio="xMidYMid" fill-rule="evenodd" stroke-width="28.222" stroke-linejoin="round" xmlns="http://www.w3.org/2000/svg" xmlns:ooo="http://xml.openoffice.org/svg/export" xmlns:xlink="http://www.w3.org/1999/xlink" xmlns:presentation="http://sun.com/xmlns/staroffice/presentation" xmlns:smil="http://www.w3.org/2001/SMIL20/" xmlns:anim="urn:oasis:names:tc:opendocument:xmlns:animation:1.0" xml:space="preserve">
 <defs class="ClipPathGroup">
  <clipPath id="presentation_clip_path" clipPathUnits="userSpaceOnUse">
   <rect x="0" y="0" width="1000" height="1000"/>
  </clipPath>
  <clipPath id="presentation_clip_path_shrink" clipPathUnits="userSpaceOnUse">
   <rect x="1" y="1" width="998" height="998"/>
  </clipPath>
 </defs>
 <defs class="TextShapeIndex">
  <g ooo:slide="id1" ooo:id-list="id3 id4 id5 id6 id7 id8 id9 id10"/>
 </defs>
 <defs class="EmbeddedBulletChars">
  <g id="bullet-char-template-57356" transform="scale(0.00048828125,-0.00048828125)">
   <path d="M 580,1141 L 1163,571 580,0 -4,571 580,1141 Z"/>
  </g>
  <g id="bullet-char-template-57354" transform="scale(0.00048828125,-0.00048828125)">
   <path d="M 8,1128 L 1137,1128 1137,0 8,0 8,1128 Z"/>
  </g>
  <g id="bullet-char-template-10146" transform="scale(0.00048828125,-0.00048828125)">
   <path d="M 174,0 L 602,739 174,1481 1456,739 174,0 Z M 1358,739 L 309,1346 659,739 1358,739 Z"/>
  </g>
  <g id="bullet-char-template-10132" transform="scale(0.00048828125,-0.00048828125)">
   <path d="M 2015,739 L 1276,0 717,0 1260,543 174,543 174,936 1260,936 717,1481 1274,1481 2015,739 Z"/>
  </g>
  <g id="bullet-char-template-10007" transform="scale(0.00048828125,-0.00048828125)">
   <path d="M 0,-2 C -7,14 -16,27 -25,37 L 356,567 C 262,823 215,952 215,954 215,979 228,992 255,992 264,992 276,990 289,987 310,991 331,999 354,1012 L 381,999 492,748 772,1049 836,1024 860,1049 C 881,1039 901,1025 922,1006 886,937 835,863 770,784 769,783 710,716 594,584 L 774,223 C 774,196 753,168 711,139 L 727,119 C 717,90 699,76 672,76 641,76 570,178 457,381 L 164,-76 C 142,-110 111,-127 72,-127 30,-127 9,-110 8,-76 1,-67 -2,-52 -2,-32 -2,-23 -1,-13 0,-2 Z"/>
  </g>
  <g id="bullet-char-template-10004" transform="scale(0.00048828125,-0.00048828125)">
   <path d="M 285,-33 C 182,-33 111,30 74,156 52,228 41,333 41,471 41,549 55,616 82,672 116,743 169,778 240,778 293,778 328,747 346,684 L 369,508 C 377,444 397,411 428,410 L 1163,1116 C 1174,1127 1196,1133 1229,1133 1271,1133 1292,1118 1292,1087 L 1292,965 C 1292,929 1282,901 1262,881 L 442,47 C 390,-6 338,-33 285,-33 Z"/>
  </g>
  <g id="bullet-char-template-9679" transform="scale(0.00048828125,-0.00048828125)">
   <path d="M 813,0 C 632,0 489,54 383,161 276,268 223,411 223,592 223,773 276,916 383,1023 489,1130 632,1184 813,1184 992,1184 1136,1130 1245,1023 1353,916 1407,772 1407,592 1407,412 1353,268 1245,161 1136,54 992,0 813,0 Z"/>
  </g>
  <g id="bullet-char-template-8226" transform="scale(0.00048828125,-0.00048828125)">
   <path d="M 346,457 C 273,457 209,483 155,535 101,586 74,649 74,723 74,796 101,859 155,911 209,963 273,989 346,989 419,989 480,963 531,910 582,859 608,796 608,723 608,648 583,586 532,535 482,483 420,457 346,457 Z"/>
  </g>
  <g id="bullet-char-template-8211" transform="scale(0.00048828125,-0.00048828125)">
   <path d="M -4,459 L 1135,459 1135,606 -4,606 -4,459 Z"/>
  </g>
  <g id="bullet-char-template-61548" transform="scale(0.00048828125,-0.00048828125)">
   <path d="M 173,740 C 173,903 231,1043 346,1159 462,1274 601,1332 765,1332 928,1332 1067,1274 1183,1159 1299,1043 1357,903 1357,740 1357,577 1299,437 1183,322 1067,206 928,148 765,148 601,148 462,206 346,322 231,437 173,577 173,740 Z"/>
  </g>
 </defs>
 <g>
  <g id="id2" class="Master_Slide">
   <g id="bg-id2" class="Background"/>
   <g id="bo-id2" class="BackgroundObjects"/>
  </g>
 </g>
 <g class="SlideGroup">
  <g>
   <g id="container-id1">
    <g id="id1" class="Slide" clip-path="url(#presentation_clip_path)">
     <g class="Page">
      <g class="Group">
       <g class="com.sun.star.drawing.ClosedBezierShape">
        <g id="id3">
         <rect class="BoundingBox" stroke="none" fill="none" x="674" y="388" width="277" height="212"/>
         <path fill="rgb(0,0,0)" stroke="none" d="M 737,494 C 737,500 743,504 751,504 L 871,504 C 882,504 883,492 879,485 871,472 864,459 857,446 852,439 842,435 834,435 L 750,435 C 742,435 737,439 737,448 L 737,494 Z M 678,389 L 841,389 C 895,391 948,500 949,532 949,570 950,560 950,598 855,598 770,584 674,584 679,503 673,469 678,389 Z"/>
        </g>
       </g>
       <g class="com.sun.star.drawing.CustomShape">
        <g id="id4">
         <rect class="BoundingBox" stroke="none" fill="none" x="82" y="406" width="128" height="38"/>
         <path fill="rgb(0,0,0)" stroke="none" d="M 100,406 L 101,406 C 97,406 94,407 91,408 88,410 86,412 84,415 83,418 82,421 82,425 L 82,424 82,425 C 82,428 83,431 84,434 86,437 88,439 91,441 94,442 97,443 101,443 L 190,443 191,443 C 194,443 197,442 200,441 203,439 205,437 207,434 208,431 209,428 209,425 L 209,424 209,425 209,425 C 209,421 208,418 207,415 205,412 203,410 200,408 197,407 194,406 191,406 L 100,406 Z"/>
        </g>
       </g>
       <g class="com.sun.star.drawing.CustomShape">
        <g id="id5">
         <rect class="BoundingBox" stroke="none" fill="none" x="54" y="477" width="155" height="38"/>
         <path fill="rgb(0,0,0)" stroke="none" d="M 72,478 L 72,478 C 69,478 66,479 63,480 60,482 58,484 56,487 55,490 54,493 54,496 L 54,496 54,496 C 54,499 55,502 56,505 58,508 60,510 63,512 66,513 69,514 72,514 L 190,514 190,514 C 193,514 196,513 199,512 202,510 204,508 206,505 207,502 208,499 208,496 L 208,496 208,496 208,496 C 208,493 207,490 206,487 204,484 202,482 199,480 196,479 193,478 190,478 L 72,478 Z"/>
        </g>
       </g>
       <g class="com.sun.star.drawing.CustomShape">
        <g id="id6">
         <rect class="BoundingBox" stroke="none" fill="none" x="50" y="550" width="161" height="38"/>
         <path fill="rgb(0,0,0)" stroke="none" d="M 68,550 L 69,550 C 65,550 62,551 59,552 56,554 54,556 52,559 51,562 50,565 50,569 L 50,568 50,569 C 50,572 51,575 52,578 54,581 56,583 59,585 62,586 65,587 69,587 L 190,587 191,587 C 194,587 197,586 200,585 203,583 205,581 207,578 208,575 209,572 209,569 L 209,568 209,569 209,569 C 209,565 208,562 207,559 205,556 203,554 200,552 197,551 194,550 191,550 L 68,550 Z"/>
        </g>
       </g>
       <g class="com.sun.star.drawing.CustomShape">
        <g id="id7">
         <rect class="BoundingBox" stroke="none" fill="none" x="262" y="274" width="434" height="315"/>
         <path fill="rgb(0,0,0)" stroke="none" d="M 314,274 L 314,274 C 305,274 296,276 288,281 280,286 274,292 269,300 264,308 262,317 262,326 L 262,535 262,536 C 262,545 264,554 269,562 274,570 280,576 288,581 296,586 305,588 314,588 L 642,588 643,588 C 652,588 661,586 669,581 677,576 683,570 688,562 693,554 695,545 695,536 L 694,326 695,326 695,326 C 695,317 693,308 688,300 683,292 677,286 669,281 661,276 652,274 643,274 L 314,274 Z"/>
        </g>
       </g>
       <g class="com.sun.star.drawing.CustomShape">
        <g id="id8">
         <rect class="BoundingBox" stroke="none" fill="none" x="415" y="608" width="122" height="119"/>
         <path fill="rgb(0,0,0)" stroke="none" d="M 536,667 C 536,677 533,687 528,696 523,705 515,712 506,717 497,722 486,725 476,725 465,725 454,722 445,717 436,712 428,705 423,696 418,687 415,677 415,667 415,656 418,646 423,637 428,628 436,621 445,616 454,611 465,608 475,608 486,608 497,611 506,616 515,621 523,628 528,637 533,646 536,656 536,666 L 536,667 Z"/>
        </g>
       </g>
       <g class="com.sun.star.drawing.CustomShape">
        <g id="id9">
         <rect class="BoundingBox" stroke="none" fill="none" x="748" y="607" width="128" height="119"/>
         <path fill="rgb(0,0,0)" stroke="none" d="M 875,666 C 875,676 872,687 866,696 861,704 853,712 843,717 834,722 823,725 812,725 800,725 789,722 780,717 770,712 762,704 757,696 751,687 748,676 748,666 748,656 751,645 757,637 762,628 770,620 780,615 789,610 800,607 812,607 823,607 834,610 843,615 853,620 861,628 866,637 872,645 875,656 875,666 L 875,666 Z"/>
        </g>
       </g>
       <g class="com.sun.star.drawing.ClosedBezierShape">
        <g id="id10">
         <rect class="BoundingBox" stroke="none" fill="none" x="303" y="579" width="648" height="87"/>
         <path fill="rgb(0,0,0)" stroke="none" d="M 542,629 C 535,618 525,608 514,602 502,595 489,592 475,592 462,592 449,595 437,602 426,608 416,618 409,629 403,640 399,652 399,665 L 318,665 C 315,665 313,664 311,663 308,661 307,660 305,657 304,655 303,653 303,650 L 303,650 303,594 C 303,591 304,589 305,587 307,585 308,583 311,582 313,581 315,580 318,580 L 935,580 C 938,580 941,581 943,582 945,583 947,585 948,587 949,589 950,591 950,594 L 950,650 C 950,653 949,655 948,657 947,660 945,661 943,663 941,664 938,665 935,665 L 935,665 887,665 C 886,652 883,640 876,629 870,618 860,609 848,602 837,596 824,592 810,592 797,592 784,596 772,602 760,609 751,618 744,629 738,640 734,652 734,665 L 552,665 C 552,652 548,640 542,629 Z"/>
        </g>
       </g>
      </g>
     </g>
    </g>
   </g>
  </g>
 </g>
</svg>