<?xml version="1.0" encoding="UTF-8"?>
<!DOCTYPE svg PUBLIC "-//W3C//DTD SVG 1.1//EN" "http://www.w3.org/Graphics/SVG/1.1/DTD/svg11.dtd">
<svg version="1.2" width="10mm" height="10mm" viewBox="0 0 1000 1000" preserveAspectRatio="xMidYMid" fill-rule="evenodd" stroke-width="28.222" stroke-linejoin="round" xmlns="http://www.w3.org/2000/svg" xmlns:ooo="http://xml.openoffice.org/svg/export" xmlns:xlink="http://www.w3.org/1999/xlink" xmlns:presentation="http://sun.com/xmlns/staroffice/presentation" xmlns:smil="http://www.w3.org/2001/SMIL20/" xmlns:anim="urn:oasis:names:tc:opendocument:xmlns:animation:1.0" xml:space="preserve">
 <defs class="ClipPathGroup">
  <clipPath id="presentation_clip_path" clipPathUnits="userSpaceOnUse">
   <rect x="0" y="0" width="1000" height="1000"/>
  </clipPath>
  <clipPath id="presentation_clip_path_shrink" clipPathUnits="userSpaceOnUse">
   <rect x="1" y="1" width="998" height="998"/>
  </clipPath>
 </defs>
 <defs class="TextShapeIndex">
  <g ooo:slide="id1" ooo:id-list="id3 id4 id5 id6"/>
 </defs>
 <defs class="EmbeddedBulletChars">
  <g id="bullet-char-template-57356" transform="scale(0.00048828125,-0.00048828125)">
   <path d="M 580,1141 L 1163,571 580,0 -4,571 580,1141 Z"/>
  </g>
  <g id="bullet-char-template-57354" transform="scale(0.00048828125,-0.00048828125)">
   <path d="M 8,1128 L 1137,1128 1137,0 8,0 8,1128 Z"/>
  </g>
  <g id="bullet-char-template-10146" transform="scale(0.00048828125,-0.00048828125)">
   <path d="M 174,0 L 602,739 174,1481 1456,739 174,0 Z M 1358,739 L 309,1346 659,739 1358,739 Z"/>
  </g>
  <g id="bullet-char-template-10132" transform="scale(0.00048828125,-0.00048828125)">
   <path d="M 2015,739 L 1276,0 717,0 1260,543 174,543 174,936 1260,936 717,1481 1274,1481 2015,739 Z"/>
  </g>
  <g id="bullet-char-template-10007" transform="scale(0.00048828125,-0.00048828125)">
   <path d="M 0,-2 C -7,14 -16,27 -25,37 L 356,567 C 262,823 215,952 215,954 215,979 228,992 255,992 264,992 276,990 289,987 310,991 331,999 354,1012 L 381,999 492,748 772,1049 836,1024 860,1049 C 881,1039 901,1025 922,1006 886,937 835,863 770,784 769,783 710,716 594,584 L 774,223 C 774,196 753,168 711,139 L 727,119 C 717,90 699,76 672,76 641,76 570,178 457,381 L 164,-76 C 142,-110 111,-127 72,-127 30,-127 9,-110 8,-76 1,-67 -2,-52 -2,-32 -2,-23 -1,-13 0,-2 Z"/>
  </g>
  <g id="bullet-char-template-10004" transform="scale(0.00048828125,-0.00048828125)">
   <path d="M 285,-33 C 182,-33 111,30 74,156 52,228 41,333 41,471 41,549 55,616 82,672 116,743 169,778 240,778 293,778 328,747 346,684 L 369,508 C 377,444 397,411 428,410 L 1163,1116 C 1174,1127 1196,1133 1229,1133 1271,1133 1292,1118 1292,1087 L 1292,965 C 1292,929 1282,901 1262,881 L 442,47 C 390,-6 338,-33 285,-33 Z"/>
  </g>
  <g id="bullet-char-template-9679" transform="scale(0.00048828125,-0.00048828125)">
   <path d="M 813,0 C 632,0 489,54 383,161 276,268 223,411 223,592 223,773 276,916 383,1023 489,1130 632,1184 813,1184 992,1184 1136,1130 1245,1023 1353,916 1407,772 1407,592 1407,412 1353,268 1245,161 1136,54 992,0 813,0 Z"/>
  </g>
  <g id="bullet-char-template-8226" transform="scale(0.00048828125,-0.00048828125)">
   <path d="M 346,457 C 273,457 209,483 155,535 101,586 74,649 74,723 74,796 101,859 155,911 209,963 273,989 346,989 419,989 480,963 531,910 582,859 608,796 608,723 608,648 583,586 532,535 482,483 420,457 346,457 Z"/>
  </g>
  <g id="bullet-char-template-8211" transform="scale(0.00048828125,-0.00048828125)">
   <path d="M -4,459 L 1135,459 1135,606 -4,606 -4,459 Z"/>
  </g>
  <g id="bullet-char-template-61548" transform="scale(0.00048828125,-0.00048828125)">
   <path d="M 173,740 C 173,903 231,1043 346,1159 462,1274 601,1332 765,1332 928,1332 1067,1274 1183,1159 1299,1043 1357,903 1357,740 1357,577 1299,437 1183,322 1067,206 928,148 765,148 601,148 462,206 346,322 231,437 173,577 173,740 Z"/>
  </g>
 </defs>
 <g>
  <g id="id2" class="Master_Slide">
   <g id="bg-id2" class="Background"/>
   <g id="bo-id2" class="BackgroundObjects"/>
  </g>
 </g>
 <g class="SlideGroup">
  <g>
   <g id="container-id1">
    <g id="id1" class="Slide" clip-path="url(#presentation_clip_path)">
     <g class="Page">
      <g class="Group">
       <g class="com.sun.star.drawing.PolyPolygonShape">
        <g id="id3">
         <rect class="BoundingBox" stroke="none" fill="none" x="201" y="207" width="770" height="374"/>
         <path fill="rgb(255,255,255)" stroke="none" d="M 219,225 L 952,225 828,553 338,562 219,225 Z"/>
         <path fill="none" stroke="rgb(0,0,0)" stroke-width="35" stroke-linejoin="round" d="M 219,225 L 952,225 828,553 338,562 219,225 Z"/>
        </g>
       </g>
       <g class="com.sun.star.drawing.CustomShape">
        <g id="id4">
         <rect class="BoundingBox" stroke="none" fill="none" x="334" y="682" width="141" height="141"/>
         <path fill="rgb(0,0,0)" stroke="none" d="M 473,752 C 473,764 470,776 464,787 458,797 449,806 439,812 428,818 416,821 404,821 392,821 380,818 370,812 359,806 350,797 344,787 338,776 335,764 335,752 335,740 338,728 344,718 350,707 359,698 369,692 380,686 392,683 404,683 416,683 428,686 438,692 449,698 458,707 464,717 470,728 473,740 473,752 L 473,752 Z"/>
         <path fill="none" stroke="rgb(0,0,0)" d="M 473,752 C 473,764 470,776 464,787 458,797 449,806 439,812 428,818 416,821 404,821 392,821 380,818 370,812 359,806 350,797 344,787 338,776 335,764 335,752 335,740 338,728 344,718 350,707 359,698 369,692 380,686 392,683 404,683 416,683 428,686 438,692 449,698 458,707 464,717 470,728 473,740 473,752 L 473,752 Z"/>
        </g>
       </g>
       <g class="com.sun.star.drawing.CustomShape">
        <g id="id5">
         <rect class="BoundingBox" stroke="none" fill="none" x="650" y="684" width="142" height="142"/>
         <path fill="rgb(0,0,0)" stroke="none" d="M 790,755 C 790,767 787,779 781,789 775,800 766,809 755,815 745,821 733,824 721,824 708,824 696,821 686,815 675,809 666,800 660,789 654,779 651,767 651,755 651,742 654,730 660,720 666,709 675,700 686,694 696,688 708,685 721,685 733,685 745,688 755,694 766,700 775,709 781,720 787,730 790,742 790,755 L 790,755 Z"/>
         <path fill="none" stroke="rgb(0,0,0)" d="M 790,755 C 790,767 787,779 781,789 775,800 766,809 755,815 745,821 733,824 721,824 708,824 696,821 686,815 675,809 666,800 660,789 654,779 651,767 651,755 651,742 654,730 660,720 666,709 675,700 686,694 696,688 708,685 721,685 733,685 745,688 755,694 766,700 775,709 781,720 787,730 790,742 790,755 L 790,755 Z"/>
        </g>
       </g>
       <g class="com.sun.star.drawing.ClosedBezierShape">
        <g id="id6">
         <rect class="BoundingBox" stroke="none" fill="none" x="32" y="88" width="828" height="646"/>
         <path fill="rgb(0,0,0)" stroke="none" d="M 809,705 C 807,703 805,700 804,698 L 842,698 842,698 C 845,698 848,699 850,700 853,702 855,704 857,707 858,709 859,712 859,715 859,718 858,721 857,724 855,726 853,728 850,730 848,731 845,732 842,732 L 842,733 819,733 C 817,723 813,714 809,705 Z M 634,705 C 630,714 626,723 624,733 L 504,733 C 502,722 498,712 493,703 491,701 490,699 489,698 L 639,698 C 638,700 636,703 634,705 Z M 318,703 C 313,712 309,722 307,733 L 261,733 C 258,733 255,732 252,730 249,729 247,727 246,724 244,721 243,718 243,715 243,712 244,709 246,707 L 321,568 185,181 41,121 42,120 C 41,120 41,120 41,120 38,118 36,116 34,114 33,111 32,108 32,105 32,102 33,99 34,96 36,94 38,92 41,90 43,89 46,88 49,88 51,88 53,88 55,89 L 55,89 206,152 C 207,152 207,152 208,153 211,154 213,157 215,159 215,160 216,161 216,162 L 357,564 C 357,566 358,568 358,570 358,573 357,576 356,578 L 290,698 322,698 C 321,699 320,701 318,703 Z"/>
        </g>
       </g>
      </g>
     </g>
    </g>
   </g>
  </g>
 </g>
</svg>