<?xml version="1.0" encoding="UTF-8"?>
<!DOCTYPE svg PUBLIC "-//W3C//DTD SVG 1.1//EN" "http://www.w3.org/Graphics/SVG/1.1/DTD/svg11.dtd">
<svg version="1.2" width="10mm" height="10mm" viewBox="0 0 1000 1000" preserveAspectRatio="xMidYMid" fill-rule="evenodd" stroke-width="28.222" stroke-linejoin="round" xmlns="http://www.w3.org/2000/svg" xmlns:ooo="http://xml.openoffice.org/svg/export" xmlns:xlink="http://www.w3.org/1999/xlink" xmlns:presentation="http://sun.com/xmlns/staroffice/presentation" xmlns:smil="http://www.w3.org/2001/SMIL20/" xmlns:anim="urn:oasis:names:tc:opendocument:xmlns:animation:1.0" xml:space="preserve">
 <defs class="ClipPathGroup">
  <clipPath id="presentation_clip_path" clipPathUnits="userSpaceOnUse">
   <rect x="0" y="0" width="1000" height="1000"/>
  </clipPath>
  <clipPath id="presentation_clip_path_shrink" clipPathUnits="userSpaceOnUse">
   <rect x="1" y="1" width="998" height="998"/>
  </clipPath>
 </defs>
 <defs class="TextShapeIndex">
  <g ooo:slide="id1" ooo:id-list="id3 id4 id5 id6 id7 id8 id9"/>
 </defs>
 <defs class="EmbeddedBulletChars">
  <g id="bullet-char-template-57356" transform="scale(0.00048828125,-0.00048828125)">
   <path d="M 580,1141 L 1163,571 580,0 -4,571 580,1141 Z"/>
  </g>
  <g id="bullet-char-template-57354" transform="scale(0.00048828125,-0.00048828125)">
   <path d="M 8,1128 L 1137,1128 1137,0 8,0 8,1128 Z"/>
  </g>
  <g id="bullet-char-template-10146" transform="scale(0.00048828125,-0.00048828125)">
   <path d="M 174,0 L 602,739 174,1481 1456,739 174,0 Z M 1358,739 L 309,1346 659,739 1358,739 Z"/>
  </g>
  <g id="bullet-char-template-10132" transform="scale(0.00048828125,-0.00048828125)">
   <path d="M 2015,739 L 1276,0 717,0 1260,543 174,543 174,936 1260,936 717,1481 1274,1481 2015,739 Z"/>
  </g>
  <g id="bullet-char-template-10007" transform="scale(0.00048828125,-0.00048828125)">
   <path d="M 0,-2 C -7,14 -16,27 -25,37 L 356,567 C 262,823 215,952 215,954 215,979 228,992 255,992 264,992 276,990 289,987 310,991 331,999 354,1012 L 381,999 492,748 772,1049 836,1024 860,1049 C 881,1039 901,1025 922,1006 886,937 835,863 770,784 769,783 710,716 594,584 L 774,223 C 774,196 753,168 711,139 L 727,119 C 717,90 699,76 672,76 641,76 570,178 457,381 L 164,-76 C 142,-110 111,-127 72,-127 30,-127 9,-110 8,-76 1,-67 -2,-52 -2,-32 -2,-23 -1,-13 0,-2 Z"/>
  </g>
  <g id="bullet-char-template-10004" transform="scale(0.00048828125,-0.00048828125)">
   <path d="M 285,-33 C 182,-33 111,30 74,156 52,228 41,333 41,471 41,549 55,616 82,672 116,743 169,778 240,778 293,778 328,747 346,684 L 369,508 C 377,444 397,411 428,410 L 1163,1116 C 1174,1127 1196,1133 1229,1133 1271,1133 1292,1118 1292,1087 L 1292,965 C 1292,929 1282,901 1262,881 L 442,47 C 390,-6 338,-33 285,-33 Z"/>
  </g>
  <g id="bullet-char-template-9679" transform="scale(0.00048828125,-0.00048828125)">
   <path d="M 813,0 C 632,0 489,54 383,161 276,268 223,411 223,592 223,773 276,916 383,1023 489,1130 632,1184 813,1184 992,1184 1136,1130 1245,1023 1353,916 1407,772 1407,592 1407,412 1353,268 1245,161 1136,54 992,0 813,0 Z"/>
  </g>
  <g id="bullet-char-template-8226" transform="scale(0.00048828125,-0.00048828125)">
   <path d="M 346,457 C 273,457 209,483 155,535 101,586 74,649 74,723 74,796 101,859 155,911 209,963 273,989 346,989 419,989 480,963 531,910 582,859 608,796 608,723 608,648 583,586 532,535 482,483 420,457 346,457 Z"/>
  </g>
  <g id="bullet-char-template-8211" transform="scale(0.00048828125,-0.00048828125)">
   <path d="M -4,459 L 1135,459 1135,606 -4,606 -4,459 Z"/>
  </g>
  <g id="bullet-char-template-61548" transform="scale(0.00048828125,-0.00048828125)">
   <path d="M 173,740 C 173,903 231,1043 346,1159 462,1274 601,1332 765,1332 928,1332 1067,1274 1183,1159 1299,1043 1357,903 1357,740 1357,577 1299,437 1183,322 1067,206 928,148 765,148 601,148 462,206 346,322 231,437 173,577 173,740 Z"/>
  </g>
 </defs>
 <g>
  <g id="id2" class="Master_Slide">
   <g id="bg-id2" class="Background"/>
   <g id="bo-id2" class="BackgroundObjects"/>
  </g>
 </g>
 <g class="SlideGroup">
  <g>
   <g id="container-id1">
    <g id="id1" class="Slide" clip-path="url(#presentation_clip_path)">
     <g class="Page">
      <g class="Group">
       <g class="Group">
        <g class="com.sun.star.drawing.ClosedBezierShape">
         <g id="id3">
          <rect class="BoundingBox" stroke="none" fill="none" x="-367990" y="-267110" width="65052" height="96336"/>
          <path fill="rgb(174,207,0)" stroke="none" d="M -355018,-223298 C -360108,-223298 -362849,-223248 -367940,-223248 -367940,-207963 -367940,-192678 -367940,-177344 -364416,-176996 -361218,-178386 -356976,-178287 -344380,-176302 -330904,-167369 -310640,-172282 -306431,-173721 -304571,-181512 -307442,-184242 -304277,-184192 -301764,-197542 -306104,-197988 -302058,-200073 -301960,-213521 -305778,-214811 -302319,-216052 -302515,-229253 -306789,-229104 -313577,-229104 -320397,-229104 -327216,-229104 -319254,-235307 -318243,-247068 -318993,-257143 -320397,-264041 -326955,-271187 -327738,-264189 -329696,-252180 -336712,-243843 -345979,-235456 -349242,-232478 -351200,-223446 -355018,-223298 Z"/>
          <path fill="none" stroke="rgb(87,157,28)" stroke-width="100" stroke-linejoin="round" d="M -355018,-223298 C -360108,-223298 -362849,-223248 -367940,-223248 L -367940,-177344 C -364416,-176996 -361218,-178386 -356976,-178287 -344380,-176302 -330904,-167369 -310640,-172282 -306431,-173721 -304571,-181512 -307442,-184242 -304277,-184192 -301764,-197542 -306104,-197988 -302058,-200073 -301960,-213521 -305778,-214811 -302319,-216052 -302515,-229253 -306789,-229104 L -327216,-229104 C -319254,-235307 -318243,-247068 -318993,-257143 -320397,-264041 -326955,-271187 -327738,-264189 -329696,-252180 -336712,-243843 -345979,-235456 -349242,-232478 -351200,-223446 -355018,-223298 Z"/>
         </g>
        </g>
        <g class="com.sun.star.drawing.LineShape">
         <g id="id4">
          <rect class="BoundingBox" stroke="none" fill="none" x="-310005" y="-214854" width="4279" height="102"/>
          <path fill="none" stroke="rgb(87,157,28)" stroke-width="100" stroke-linejoin="round" d="M -309955,-214803 L -305778,-214803"/>
         </g>
        </g>
        <g class="com.sun.star.drawing.LineShape">
         <g id="id5">
          <rect class="BoundingBox" stroke="none" fill="none" x="-310070" y="-198080" width="3952" height="151"/>
          <path fill="none" stroke="rgb(87,157,28)" stroke-width="100" stroke-linejoin="round" d="M -310020,-198030 L -306169,-197980"/>
         </g>
        </g>
        <g class="com.sun.star.drawing.LineShape">
         <g id="id6">
          <rect class="BoundingBox" stroke="none" fill="none" x="-311669" y="-184929" width="4246" height="747"/>
          <path fill="none" stroke="rgb(87,157,28)" stroke-width="100" stroke-linejoin="round" d="M -311619,-184879 L -307475,-184234"/>
         </g>
        </g>
       </g>
       <g class="com.sun.star.drawing.PolyPolygonShape">
        <g id="id7">
         <rect class="BoundingBox" stroke="none" fill="none" x="-383572" y="-292072" width="96201" height="146201"/>
         <path fill="none" stroke="rgb(87,157,28)" stroke-width="200" stroke-linejoin="round" d="M -287472,-218972 L -287576,-214180 -287884,-209423 -288396,-204718 -289108,-200078 -290017,-195519 -291121,-191055 -292417,-186701 -293903,-182472 -295568,-178401 -297399,-174516 -299389,-170830 -301531,-167353 -303817,-164096 -306241,-161070 -308795,-158285 -311472,-155752 -314253,-153492 -317116,-151521 -320051,-149842 -323049,-148459 -326100,-147377 -329194,-146599 -332321,-146129 -335472,-145972 -338623,-146129 -341750,-146599 -344844,-147377 -347895,-148459 -350893,-149842 -353828,-151521 -356691,-153492 -359472,-155752 -362149,-158285 -364703,-161070 -367127,-164096 -369413,-167353 -371555,-170830 -373545,-174516 -375376,-178401 -377041,-182472 -378527,-186701 -379823,-191055 -380927,-195519 -381836,-200078 -382548,-204718 -383060,-209423 -383368,-214180 -383472,-218972 -383368,-223764 -383060,-228521 -382548,-233226 -381836,-237866 -380927,-242425 -379823,-246889 -378527,-251243 -377041,-255472 -375376,-259543 -373545,-263428 -371555,-267114 -369413,-270591 -367127,-273848 -364703,-276874 -362149,-279659 -359472,-282192 -356691,-284452 -353828,-286423 -350893,-288102 -347895,-289485 -344844,-290567 -341750,-291345 -338623,-291815 -335472,-291972 -332321,-291815 -329194,-291345 -326100,-290567 -323049,-289485 -320051,-288102 -317116,-286423 -314253,-284452 -311472,-282192 -308795,-279659 -306241,-276874 -303817,-273848 -301531,-270591 -299389,-267114 -297399,-263428 -295568,-259543 -293903,-255472 -292417,-251243 -291121,-246889 -290017,-242425 -289108,-237866 -288396,-233226 -287884,-228521 -287576,-223764 -287472,-218972 -287472,-218972 Z"/>
        </g>
       </g>
       <g class="Group">
        <g class="com.sun.star.drawing.ClosedBezierShape">
         <g id="id8">
          <rect class="BoundingBox" stroke="none" fill="none" x="587" y="66" width="367" height="394"/>
          <path fill="rgb(0,0,0)" stroke="none" d="M 627,195 L 692,195 C 696,184 701,175 706,165 715,150 725,136 738,124 749,112 763,102 778,93 793,85 809,78 825,74 841,69 859,67 876,67 893,67 910,69 927,74 935,76 944,79 952,83 L 934,149 C 926,145 917,142 909,139 898,136 887,135 876,135 865,135 853,136 843,139 832,142 822,147 812,152 802,158 793,165 786,172 779,179 773,186 768,195 L 866,195 851,252 749,252 C 748,256 748,259 748,263 748,270 749,276 750,283 L 843,283 827,340 775,340 C 778,345 782,349 786,353 793,361 802,368 812,373 822,379 832,383 843,386 853,389 865,390 876,390 886,390 896,389 905,387 L 923,453 C 908,457 892,458 876,458 859,458 841,456 825,452 809,447 793,441 778,432 763,424 749,413 738,401 725,389 715,375 706,361 703,354 699,347 696,340 L 588,340 601,283 681,283 C 680,276 680,270 680,263 680,259 680,256 680,252 L 612,252 627,195 Z"/>
          <path fill="none" stroke="rgb(0,0,0)" d="M 627,195 L 692,195 C 696,184 701,175 706,165 715,150 725,136 738,124 749,112 763,102 778,93 793,85 809,78 825,74 841,69 859,67 876,67 893,67 910,69 927,74 935,76 944,79 952,83 L 934,149 C 926,145 917,142 909,139 898,136 887,135 876,135 865,135 853,136 843,139 832,142 822,147 812,152 802,158 793,165 786,172 779,179 773,186 768,195 L 866,195 851,252 749,252 C 748,256 748,259 748,263 748,270 749,276 750,283 L 843,283 827,340 775,340 C 778,345 782,349 786,353 793,361 802,368 812,373 822,379 832,383 843,386 853,389 865,390 876,390 886,390 896,389 905,387 L 923,453 C 908,457 892,458 876,458 859,458 841,456 825,452 809,447 793,441 778,432 763,424 749,413 738,401 725,389 715,375 706,361 703,354 699,347 696,340 L 588,340 601,283 681,283 C 680,276 680,270 680,263 680,259 680,256 680,252 L 612,252 627,195 Z"/>
         </g>
        </g>
        <g class="com.sun.star.drawing.ClosedBezierShape">
         <g id="id9">
          <rect class="BoundingBox" stroke="none" fill="none" x="39" y="173" width="531" height="786"/>
          <path fill="rgb(0,0,0)" stroke="none" d="M 569,566 C 569,693 546,790 501,857 457,924 390,957 303,957 215,957 150,924 106,857 62,791 40,694 40,566 40,435 61,337 104,272 146,207 214,174 306,174 396,174 462,207 505,273 547,339 569,436 569,566 Z M 470,566 C 470,456 457,376 432,327 406,277 364,253 306,253 246,253 203,277 177,326 151,374 138,454 138,566 138,674 151,753 178,803 204,853 246,878 304,878 361,878 403,852 430,801 456,750 470,672 470,566 Z"/>
         </g>
        </g>
       </g>
      </g>
     </g>
    </g>
   </g>
  </g>
 </g>
</svg>