<?xml version="1.0" encoding="UTF-8"?>
<!DOCTYPE svg PUBLIC "-//W3C//DTD SVG 1.1//EN" "http://www.w3.org/Graphics/SVG/1.1/DTD/svg11.dtd">
<svg version="1.2" width="40mm" height="40mm" viewBox="0 0 4000 4000" preserveAspectRatio="xMidYMid" fill-rule="evenodd" stroke-width="28.222" stroke-linejoin="round" xmlns="http://www.w3.org/2000/svg" xmlns:ooo="http://xml.openoffice.org/svg/export" xmlns:xlink="http://www.w3.org/1999/xlink" xmlns:presentation="http://sun.com/xmlns/staroffice/presentation" xmlns:smil="http://www.w3.org/2001/SMIL20/" xmlns:anim="urn:oasis:names:tc:opendocument:xmlns:animation:1.0" xml:space="preserve">
 <defs class="ClipPathGroup">
  <clipPath id="presentation_clip_path" clipPathUnits="userSpaceOnUse">
   <rect x="0" y="0" width="4000" height="4000"/>
  </clipPath>
  <clipPath id="presentation_clip_path_shrink" clipPathUnits="userSpaceOnUse">
   <rect x="4" y="4" width="3992" height="3992"/>
  </clipPath>
 </defs>
 <defs class="TextShapeIndex">
  <g ooo:slide="id1" ooo:id-list="id3 id4 id5 id6 id7 id8 id9"/>
 </defs>
 <defs class="EmbeddedBulletChars">
  <g id="bullet-char-template-57356" transform="scale(0.00048828125,-0.00048828125)">
   <path d="M 580,1141 L 1163,571 580,0 -4,571 580,1141 Z"/>
  </g>
  <g id="bullet-char-template-57354" transform="scale(0.00048828125,-0.00048828125)">
   <path d="M 8,1128 L 1137,1128 1137,0 8,0 8,1128 Z"/>
  </g>
  <g id="bullet-char-template-10146" transform="scale(0.00048828125,-0.00048828125)">
   <path d="M 174,0 L 602,739 174,1481 1456,739 174,0 Z M 1358,739 L 309,1346 659,739 1358,739 Z"/>
  </g>
  <g id="bullet-char-template-10132" transform="scale(0.00048828125,-0.00048828125)">
   <path d="M 2015,739 L 1276,0 717,0 1260,543 174,543 174,936 1260,936 717,1481 1274,1481 2015,739 Z"/>
  </g>
  <g id="bullet-char-template-10007" transform="scale(0.00048828125,-0.00048828125)">
   <path d="M 0,-2 C -7,14 -16,27 -25,37 L 356,567 C 262,823 215,952 215,954 215,979 228,992 255,992 264,992 276,990 289,987 310,991 331,999 354,1012 L 381,999 492,748 772,1049 836,1024 860,1049 C 881,1039 901,1025 922,1006 886,937 835,863 770,784 769,783 710,716 594,584 L 774,223 C 774,196 753,168 711,139 L 727,119 C 717,90 699,76 672,76 641,76 570,178 457,381 L 164,-76 C 142,-110 111,-127 72,-127 30,-127 9,-110 8,-76 1,-67 -2,-52 -2,-32 -2,-23 -1,-13 0,-2 Z"/>
  </g>
  <g id="bullet-char-template-10004" transform="scale(0.00048828125,-0.00048828125)">
   <path d="M 285,-33 C 182,-33 111,30 74,156 52,228 41,333 41,471 41,549 55,616 82,672 116,743 169,778 240,778 293,778 328,747 346,684 L 369,508 C 377,444 397,411 428,410 L 1163,1116 C 1174,1127 1196,1133 1229,1133 1271,1133 1292,1118 1292,1087 L 1292,965 C 1292,929 1282,901 1262,881 L 442,47 C 390,-6 338,-33 285,-33 Z"/>
  </g>
  <g id="bullet-char-template-9679" transform="scale(0.00048828125,-0.00048828125)">
   <path d="M 813,0 C 632,0 489,54 383,161 276,268 223,411 223,592 223,773 276,916 383,1023 489,1130 632,1184 813,1184 992,1184 1136,1130 1245,1023 1353,916 1407,772 1407,592 1407,412 1353,268 1245,161 1136,54 992,0 813,0 Z"/>
  </g>
  <g id="bullet-char-template-8226" transform="scale(0.00048828125,-0.00048828125)">
   <path d="M 346,457 C 273,457 209,483 155,535 101,586 74,649 74,723 74,796 101,859 155,911 209,963 273,989 346,989 419,989 480,963 531,910 582,859 608,796 608,723 608,648 583,586 532,535 482,483 420,457 346,457 Z"/>
  </g>
  <g id="bullet-char-template-8211" transform="scale(0.00048828125,-0.00048828125)">
   <path d="M -4,459 L 1135,459 1135,606 -4,606 -4,459 Z"/>
  </g>
  <g id="bullet-char-template-61548" transform="scale(0.00048828125,-0.00048828125)">
   <path d="M 173,740 C 173,903 231,1043 346,1159 462,1274 601,1332 765,1332 928,1332 1067,1274 1183,1159 1299,1043 1357,903 1357,740 1357,577 1299,437 1183,322 1067,206 928,148 765,148 601,148 462,206 346,322 231,437 173,577 173,740 Z"/>
  </g>
 </defs>
 <g>
  <g id="id2" class="Master_Slide">
   <g id="bg-id2" class="Background"/>
   <g id="bo-id2" class="BackgroundObjects"/>
  </g>
 </g>
 <g class="SlideGroup">
  <g>
   <g id="container-id1">
    <g id="id1" class="Slide" clip-path="url(#presentation_clip_path)">
     <g class="Page">
      <g class="Group">
       <g class="com.sun.star.drawing.ClosedBezierShape">
        <g id="id3">
         <rect class="BoundingBox" stroke="none" fill="none" x="551" y="656" width="2989" height="2361"/>
         <path fill="rgb(255,222,89)" stroke="none" d="M 2349,1633 C 2336,1629 2322,1627 2310,1627 2289,1627 2271,1629 2256,1633 2241,1637 2229,1643 2218,1651 2207,1657 2198,1667 2190,1677 2183,1684 2177,1693 2171,1701 2164,1693 2158,1684 2151,1677 2143,1667 2134,1657 2123,1651 2112,1643 2100,1637 2085,1633 2070,1629 2052,1627 2031,1627 2018,1627 2006,1629 1993,1633 1980,1636 1969,1641 1958,1648 1935,1662 1916,1679 1902,1700 1892,1714 1886,1728 1881,1743 1877,1758 1875,1773 1875,1789 1875,1805 1877,1821 1881,1839 1886,1855 1892,1872 1901,1890 1902,1890 1902,1891 1902,1891 1931,1943 1970,1988 2016,2032 2061,2075 2112,2115 2167,2156 2167,2157 2168,2157 2168,2157 2168,2157 2169,2158 2171,2158 2172,2158 2173,2157 2173,2157 2174,2157 2174,2157 2174,2156 2228,2115 2280,2075 2325,2032 2371,1988 2411,1943 2440,1891 L 2440,1890 C 2449,1872 2455,1855 2460,1839 2464,1822 2466,1805 2466,1789 2466,1773 2464,1758 2460,1743 2455,1728 2449,1714 2440,1700 L 2439,1700 C 2426,1679 2406,1662 2384,1648 2372,1641 2361,1636 2349,1633 Z M 1650,1633 C 1637,1629 1625,1627 1611,1627 1591,1627 1573,1629 1559,1633 1543,1637 1531,1643 1520,1651 1510,1658 1500,1667 1492,1677 1485,1684 1479,1693 1472,1702 1466,1693 1460,1684 1454,1677 1444,1667 1436,1658 1425,1651 1414,1643 1402,1637 1387,1633 1372,1629 1355,1627 1333,1627 1320,1627 1307,1629 1294,1633 1283,1637 1271,1642 1260,1649 1237,1662 1217,1680 1204,1700 L 1204,1700 C 1195,1714 1188,1728 1184,1743 1179,1758 1177,1773 1177,1789 1177,1805 1179,1822 1184,1839 1188,1855 1195,1872 1203,1891 1234,1943 1272,1989 1318,2032 1363,2076 1415,2116 1469,2157 1471,2158 1471,2158 1472,2158 1473,2158 1475,2158 1476,2157 L 1477,2157 C 1531,2116 1582,2076 1627,2032 1673,1989 1712,1943 1742,1891 1742,1891 1742,1891 1742,1891 1751,1872 1757,1855 1762,1839 1766,1822 1768,1805 1768,1789 1768,1773 1766,1758 1762,1744 1757,1728 1751,1714 1742,1700 L 1742,1700 C 1727,1680 1708,1662 1686,1649 1675,1642 1663,1637 1650,1633 Z M 1070,1231 C 1267,1113 1456,971 1674,898 2029,778 2429,617 2786,731 2982,794 3121,986 3230,1160 3384,1406 3522,1697 3501,1986 3483,2234 3378,2520 3168,2653 2861,2847 2439,2634 2079,2677 1689,2723 1275,3115 928,2931 695,2809 680,2459 634,2200 593,1971 543,1705 658,1502 738,1358 930,1316 1070,1231 Z"/>
         <path fill="none" stroke="rgb(180,120,4)" stroke-width="71" stroke-linejoin="round" d="M 2349,1633 C 2336,1629 2322,1627 2310,1627 2289,1627 2271,1629 2256,1633 2241,1637 2229,1643 2218,1651 2207,1657 2198,1667 2190,1677 2183,1684 2177,1693 2171,1701 2164,1693 2158,1684 2151,1677 2143,1667 2134,1657 2123,1651 2112,1643 2100,1637 2085,1633 2070,1629 2052,1627 2031,1627 2018,1627 2006,1629 1993,1633 1980,1636 1969,1641 1958,1648 1935,1662 1916,1679 1902,1700 1892,1714 1886,1728 1881,1743 1877,1758 1875,1773 1875,1789 1875,1805 1877,1821 1881,1839 1886,1855 1892,1872 1901,1890 1902,1890 1902,1891 1902,1891 1931,1943 1970,1988 2016,2032 2061,2075 2112,2115 2167,2156 2167,2157 2168,2157 2168,2157 2168,2157 2169,2158 2171,2158 2172,2158 2173,2157 2173,2157 2174,2157 2174,2157 2174,2156 2228,2115 2280,2075 2325,2032 2371,1988 2411,1943 2440,1891 L 2440,1890 C 2449,1872 2455,1855 2460,1839 2464,1822 2466,1805 2466,1789 2466,1773 2464,1758 2460,1743 2455,1728 2449,1714 2440,1700 L 2439,1700 C 2426,1679 2406,1662 2384,1648 2372,1641 2361,1636 2349,1633 Z"/>
         <path fill="none" stroke="rgb(180,120,4)" stroke-width="71" stroke-linejoin="round" d="M 1650,1633 C 1637,1629 1625,1627 1611,1627 1591,1627 1573,1629 1559,1633 1543,1637 1531,1643 1520,1651 1510,1658 1500,1667 1492,1677 1485,1684 1479,1693 1472,1702 1466,1693 1460,1684 1454,1677 1444,1667 1436,1658 1425,1651 1414,1643 1402,1637 1387,1633 1372,1629 1355,1627 1333,1627 1320,1627 1307,1629 1294,1633 1283,1637 1271,1642 1260,1649 1237,1662 1217,1680 1204,1700 L 1204,1700 C 1195,1714 1188,1728 1184,1743 1179,1758 1177,1773 1177,1789 1177,1805 1179,1822 1184,1839 1188,1855 1195,1872 1203,1891 1234,1943 1272,1989 1318,2032 1363,2076 1415,2116 1469,2157 1471,2158 1471,2158 1472,2158 1473,2158 1475,2158 1476,2157 L 1477,2157 C 1531,2116 1582,2076 1627,2032 1673,1989 1712,1943 1742,1891 L 1742,1891 C 1751,1872 1757,1855 1762,1839 1766,1822 1768,1805 1768,1789 1768,1773 1766,1758 1762,1744 1757,1728 1751,1714 1742,1700 L 1742,1700 C 1727,1680 1708,1662 1686,1649 1675,1642 1663,1637 1650,1633 Z"/>
         <path fill="none" stroke="rgb(180,120,4)" stroke-width="71" stroke-linejoin="round" d="M 1070,1231 C 1267,1113 1456,971 1674,898 2029,778 2429,617 2786,731 2982,794 3121,986 3230,1160 3384,1406 3522,1697 3501,1986 3483,2234 3378,2520 3168,2653 2861,2847 2439,2634 2079,2677 1689,2723 1275,3115 928,2931 695,2809 680,2459 634,2200 593,1971 543,1705 658,1502 738,1358 930,1316 1070,1231 Z"/>
        </g>
       </g>
       <g class="com.sun.star.drawing.ClosedBezierShape">
        <g id="id4">
         <rect class="BoundingBox" stroke="none" fill="none" x="2512" y="1597" width="651" height="591"/>
         <path fill="rgb(232,162,2)" stroke="none" d="M 2976,1633 C 3026,1633 3073,1664 3101,1703 3135,1757 3134,1817 3101,1887 3042,1990 2946,2070 2837,2151 2729,2070 2632,1990 2573,1887 2540,1817 2538,1757 2573,1703 2600,1664 2648,1633 2698,1633 2779,1633 2804,1666 2837,1712 2869,1666 2895,1633 2976,1633 Z"/>
         <path fill="none" stroke="rgb(180,120,4)" stroke-width="71" stroke-linejoin="round" d="M 2976,1633 C 3026,1633 3073,1664 3101,1703 3135,1757 3134,1817 3101,1887 3042,1990 2946,2070 2837,2151 2729,2070 2632,1990 2573,1887 2540,1817 2538,1757 2573,1703 2600,1664 2648,1633 2698,1633 2779,1633 2804,1666 2837,1712 2869,1666 2895,1633 2976,1633 Z"/>
        </g>
       </g>
       <g class="Group">
        <g class="com.sun.star.drawing.CustomShape">
         <g id="id5">
          <rect class="BoundingBox" stroke="none" fill="none" x="81" y="495" width="1885" height="1884"/>
          <path fill="rgb(204,153,0)" stroke="none" d="M 127,2176 L 128,2175 C 123,2180 120,2186 119,2192 117,2198 117,2205 119,2211 120,2217 124,2223 128,2227 L 233,2331 233,2331 C 237,2336 243,2339 249,2341 256,2342 262,2342 268,2341 275,2339 280,2336 285,2331 L 1919,697 1919,697 C 1923,693 1927,687 1928,681 1930,675 1930,668 1928,662 1926,656 1923,650 1919,645 L 1813,541 1814,542 1814,542 C 1809,537 1804,534 1797,532 1791,530 1784,531 1778,532 1772,534 1766,537 1762,542 L 127,2176 Z"/>
          <path fill="none" stroke="rgb(0,0,0)" stroke-width="71" stroke-linejoin="round" d="M 127,2176 L 128,2175 C 123,2180 120,2186 119,2192 117,2198 117,2205 119,2211 120,2217 124,2223 128,2227 L 233,2331 233,2331 C 237,2336 243,2339 249,2341 256,2342 262,2342 268,2341 275,2339 280,2336 285,2331 L 1919,697 1919,697 C 1923,693 1927,687 1928,681 1930,675 1930,668 1928,662 1926,656 1923,650 1919,645 L 1813,541 1814,542 1814,542 C 1809,537 1804,534 1797,532 1791,530 1784,531 1778,532 1772,534 1766,537 1762,542 L 127,2176 Z"/>
         </g>
        </g>
        <g class="com.sun.star.drawing.CustomShape">
         <g id="id6">
          <rect class="BoundingBox" stroke="none" fill="none" x="273" y="685" width="1503" height="1501"/>
          <path fill="rgb(153,102,0)" stroke="none" d="M 326,1877 L 326,1877 C 319,1885 313,1894 311,1904 308,1914 308,1925 311,1935 314,1945 319,1955 326,1962 L 496,2131 497,2132 C 505,2139 514,2145 524,2147 534,2150 545,2150 555,2147 565,2145 575,2139 582,2132 L 1721,993 1721,993 C 1729,985 1734,976 1737,966 1739,956 1739,945 1737,935 1734,925 1729,915 1721,908 L 1550,738 1550,738 1550,738 C 1543,731 1534,725 1523,723 1513,720 1502,720 1492,723 1482,725 1473,731 1465,738 L 326,1877 Z"/>
          <path fill="none" stroke="rgb(0,0,0)" stroke-width="71" stroke-linejoin="round" d="M 326,1877 L 326,1877 C 319,1885 313,1894 311,1904 308,1914 308,1925 311,1935 314,1945 319,1955 326,1962 L 496,2131 497,2132 C 505,2139 514,2145 524,2147 534,2150 545,2150 555,2147 565,2145 575,2139 582,2132 L 1721,993 1721,993 C 1729,985 1734,976 1737,966 1739,956 1739,945 1737,935 1734,925 1729,915 1721,908 L 1550,738 1550,738 1550,738 C 1543,731 1534,725 1523,723 1513,720 1502,720 1492,723 1482,725 1473,731 1465,738 L 326,1877 Z"/>
         </g>
        </g>
       </g>
       <g class="com.sun.star.drawing.ClosedBezierShape">
        <g id="id7">
         <rect class="BoundingBox" stroke="none" fill="none" x="2888" y="2944" width="652" height="591"/>
         <path fill="rgb(255,222,89)" stroke="none" d="M 3353,2980 C 3403,2980 3450,3011 3477,3050 3512,3104 3511,3164 3477,3235 3419,3337 3322,3417 3214,3498 3106,3417 3009,3337 2950,3235 2917,3164 2915,3104 2950,3050 2977,3011 3024,2980 3074,2980 3156,2980 3181,3013 3214,3059 3246,3013 3272,2980 3353,2980 Z"/>
         <path fill="none" stroke="rgb(180,120,4)" stroke-width="71" stroke-linejoin="round" d="M 3353,2980 C 3403,2980 3450,3011 3477,3050 3512,3104 3511,3164 3477,3235 3419,3337 3322,3417 3214,3498 3106,3417 3009,3337 2950,3235 2917,3164 2915,3104 2950,3050 2977,3011 3024,2980 3074,2980 3156,2980 3181,3013 3214,3059 3246,3013 3272,2980 3353,2980 Z"/>
        </g>
       </g>
       <g class="com.sun.star.drawing.ClosedBezierShape">
        <g id="id8">
         <rect class="BoundingBox" stroke="none" fill="none" x="3282" y="467" width="652" height="591"/>
         <path fill="rgb(255,222,89)" stroke="none" d="M 3747,503 C 3797,503 3844,534 3871,573 3906,627 3905,688 3871,758 3813,860 3716,940 3608,1021 3499,940 3403,860 3344,758 3311,688 3309,627 3344,573 3371,534 3418,503 3468,503 3549,503 3575,536 3608,583 3640,536 3665,503 3747,503 Z"/>
         <path fill="none" stroke="rgb(180,120,4)" stroke-width="71" stroke-linejoin="round" d="M 3747,503 C 3797,503 3844,534 3871,573 3906,627 3905,688 3871,758 3813,860 3716,940 3608,1021 3499,940 3403,860 3344,758 3311,688 3309,627 3344,573 3371,534 3418,503 3468,503 3549,503 3575,536 3608,583 3640,536 3665,503 3747,503 Z"/>
        </g>
       </g>
       <g class="com.sun.star.drawing.ClosedBezierShape">
        <g id="id9">
         <rect class="BoundingBox" stroke="none" fill="none" x="2512" y="1597" width="651" height="591"/>
         <path fill="rgb(255,222,89)" stroke="none" d="M 2976,1633 C 3026,1633 3073,1664 3101,1703 3135,1757 3134,1817 3101,1887 3042,1990 2946,2070 2837,2151 2729,2070 2632,1990 2573,1887 2540,1817 2538,1757 2573,1703 2600,1664 2648,1633 2698,1633 2779,1633 2804,1666 2837,1712 2869,1666 2895,1633 2976,1633 Z"/>
         <path fill="none" stroke="rgb(128,128,128)" stroke-width="71" stroke-linejoin="round" d="M 2976,1633 C 3026,1633 3073,1664 3101,1703 3135,1757 3134,1817 3101,1887 3042,1990 2946,2070 2837,2151 2729,2070 2632,1990 2573,1887 2540,1817 2538,1757 2573,1703 2600,1664 2648,1633 2698,1633 2779,1633 2804,1666 2837,1712 2869,1666 2895,1633 2976,1633 Z"/>
        </g>
       </g>
      </g>
     </g>
    </g>
   </g>
  </g>
 </g>
</svg>