<?xml version="1.0" encoding="UTF-8"?>
<!DOCTYPE svg PUBLIC "-//W3C//DTD SVG 1.1//EN" "http://www.w3.org/Graphics/SVG/1.1/DTD/svg11.dtd">
<svg version="1.2" width="10mm" height="10mm" viewBox="0 0 1000 1000" preserveAspectRatio="xMidYMid" fill-rule="evenodd" stroke-width="28.222" stroke-linejoin="round" xmlns="http://www.w3.org/2000/svg" xmlns:ooo="http://xml.openoffice.org/svg/export" xmlns:xlink="http://www.w3.org/1999/xlink" xmlns:presentation="http://sun.com/xmlns/staroffice/presentation" xmlns:smil="http://www.w3.org/2001/SMIL20/" xmlns:anim="urn:oasis:names:tc:opendocument:xmlns:animation:1.0" xml:space="preserve">
 <defs class="ClipPathGroup">
  <clipPath id="presentation_clip_path" clipPathUnits="userSpaceOnUse">
   <rect x="0" y="0" width="1000" height="1000"/>
  </clipPath>
  <clipPath id="presentation_clip_path_shrink" clipPathUnits="userSpaceOnUse">
   <rect x="1" y="1" width="998" height="998"/>
  </clipPath>
 </defs>
 <defs class="TextShapeIndex">
  <g ooo:slide="id1" ooo:id-list="id3 id4 id5 id6 id7 id8 id9 id10 id11 id12"/>
 </defs>
 <defs class="EmbeddedBulletChars">
  <g id="bullet-char-template-57356" transform="scale(0.00048828125,-0.00048828125)">
   <path d="M 580,1141 L 1163,571 580,0 -4,571 580,1141 Z"/>
  </g>
  <g id="bullet-char-template-57354" transform="scale(0.00048828125,-0.00048828125)">
   <path d="M 8,1128 L 1137,1128 1137,0 8,0 8,1128 Z"/>
  </g>
  <g id="bullet-char-template-10146" transform="scale(0.00048828125,-0.00048828125)">
   <path d="M 174,0 L 602,739 174,1481 1456,739 174,0 Z M 1358,739 L 309,1346 659,739 1358,739 Z"/>
  </g>
  <g id="bullet-char-template-10132" transform="scale(0.00048828125,-0.00048828125)">
   <path d="M 2015,739 L 1276,0 717,0 1260,543 174,543 174,936 1260,936 717,1481 1274,1481 2015,739 Z"/>
  </g>
  <g id="bullet-char-template-10007" transform="scale(0.00048828125,-0.00048828125)">
   <path d="M 0,-2 C -7,14 -16,27 -25,37 L 356,567 C 262,823 215,952 215,954 215,979 228,992 255,992 264,992 276,990 289,987 310,991 331,999 354,1012 L 381,999 492,748 772,1049 836,1024 860,1049 C 881,1039 901,1025 922,1006 886,937 835,863 770,784 769,783 710,716 594,584 L 774,223 C 774,196 753,168 711,139 L 727,119 C 717,90 699,76 672,76 641,76 570,178 457,381 L 164,-76 C 142,-110 111,-127 72,-127 30,-127 9,-110 8,-76 1,-67 -2,-52 -2,-32 -2,-23 -1,-13 0,-2 Z"/>
  </g>
  <g id="bullet-char-template-10004" transform="scale(0.00048828125,-0.00048828125)">
   <path d="M 285,-33 C 182,-33 111,30 74,156 52,228 41,333 41,471 41,549 55,616 82,672 116,743 169,778 240,778 293,778 328,747 346,684 L 369,508 C 377,444 397,411 428,410 L 1163,1116 C 1174,1127 1196,1133 1229,1133 1271,1133 1292,1118 1292,1087 L 1292,965 C 1292,929 1282,901 1262,881 L 442,47 C 390,-6 338,-33 285,-33 Z"/>
  </g>
  <g id="bullet-char-template-9679" transform="scale(0.00048828125,-0.00048828125)">
   <path d="M 813,0 C 632,0 489,54 383,161 276,268 223,411 223,592 223,773 276,916 383,1023 489,1130 632,1184 813,1184 992,1184 1136,1130 1245,1023 1353,916 1407,772 1407,592 1407,412 1353,268 1245,161 1136,54 992,0 813,0 Z"/>
  </g>
  <g id="bullet-char-template-8226" transform="scale(0.00048828125,-0.00048828125)">
   <path d="M 346,457 C 273,457 209,483 155,535 101,586 74,649 74,723 74,796 101,859 155,911 209,963 273,989 346,989 419,989 480,963 531,910 582,859 608,796 608,723 608,648 583,586 532,535 482,483 420,457 346,457 Z"/>
  </g>
  <g id="bullet-char-template-8211" transform="scale(0.00048828125,-0.00048828125)">
   <path d="M -4,459 L 1135,459 1135,606 -4,606 -4,459 Z"/>
  </g>
  <g id="bullet-char-template-61548" transform="scale(0.00048828125,-0.00048828125)">
   <path d="M 173,740 C 173,903 231,1043 346,1159 462,1274 601,1332 765,1332 928,1332 1067,1274 1183,1159 1299,1043 1357,903 1357,740 1357,577 1299,437 1183,322 1067,206 928,148 765,148 601,148 462,206 346,322 231,437 173,577 173,740 Z"/>
  </g>
 </defs>
 <g>
  <g id="id2" class="Master_Slide">
   <g id="bg-id2" class="Background"/>
   <g id="bo-id2" class="BackgroundObjects"/>
  </g>
 </g>
 <g class="SlideGroup">
  <g>
   <g id="container-id1">
    <g id="id1" class="Slide" clip-path="url(#presentation_clip_path)">
     <g class="Page">
      <g class="Group">
       <g class="Group">
        <g class="com.sun.star.drawing.ClosedBezierShape">
         <g id="id3">
          <rect class="BoundingBox" stroke="none" fill="none" x="-367990" y="-267110" width="65052" height="96336"/>
          <path fill="rgb(174,207,0)" stroke="none" d="M -355018,-223298 C -360108,-223298 -362849,-223248 -367940,-223248 -367940,-207963 -367940,-192678 -367940,-177344 -364416,-176996 -361218,-178386 -356976,-178287 -344380,-176302 -330904,-167369 -310640,-172282 -306431,-173721 -304571,-181512 -307442,-184242 -304277,-184192 -301764,-197542 -306104,-197988 -302058,-200073 -301960,-213521 -305778,-214811 -302319,-216052 -302515,-229253 -306789,-229104 -313577,-229104 -320397,-229104 -327216,-229104 -319254,-235307 -318243,-247068 -318993,-257143 -320397,-264041 -326955,-271187 -327738,-264189 -329696,-252180 -336712,-243843 -345979,-235456 -349242,-232478 -351200,-223446 -355018,-223298 Z"/>
          <path fill="none" stroke="rgb(87,157,28)" stroke-width="100" stroke-linejoin="round" d="M -355018,-223298 C -360108,-223298 -362849,-223248 -367940,-223248 L -367940,-177344 C -364416,-176996 -361218,-178386 -356976,-178287 -344380,-176302 -330904,-167369 -310640,-172282 -306431,-173721 -304571,-181512 -307442,-184242 -304277,-184192 -301764,-197542 -306104,-197988 -302058,-200073 -301960,-213521 -305778,-214811 -302319,-216052 -302515,-229253 -306789,-229104 L -327216,-229104 C -319254,-235307 -318243,-247068 -318993,-257143 -320397,-264041 -326955,-271187 -327738,-264189 -329696,-252180 -336712,-243843 -345979,-235456 -349242,-232478 -351200,-223446 -355018,-223298 Z"/>
         </g>
        </g>
        <g class="com.sun.star.drawing.LineShape">
         <g id="id4">
          <rect class="BoundingBox" stroke="none" fill="none" x="-310005" y="-214854" width="4279" height="102"/>
          <path fill="none" stroke="rgb(87,157,28)" stroke-width="100" stroke-linejoin="round" d="M -309955,-214803 L -305778,-214803"/>
         </g>
        </g>
        <g class="com.sun.star.drawing.LineShape">
         <g id="id5">
          <rect class="BoundingBox" stroke="none" fill="none" x="-310070" y="-198080" width="3952" height="151"/>
          <path fill="none" stroke="rgb(87,157,28)" stroke-width="100" stroke-linejoin="round" d="M -310020,-198030 L -306169,-197980"/>
         </g>
        </g>
        <g class="com.sun.star.drawing.LineShape">
         <g id="id6">
          <rect class="BoundingBox" stroke="none" fill="none" x="-311669" y="-184929" width="4246" height="747"/>
          <path fill="none" stroke="rgb(87,157,28)" stroke-width="100" stroke-linejoin="round" d="M -311619,-184879 L -307475,-184234"/>
         </g>
        </g>
       </g>
       <g class="com.sun.star.drawing.PolyPolygonShape">
        <g id="id7">
         <rect class="BoundingBox" stroke="none" fill="none" x="-383572" y="-292072" width="96201" height="146201"/>
         <path fill="none" stroke="rgb(87,157,28)" stroke-width="200" stroke-linejoin="round" d="M -287472,-218972 L -287576,-214180 -287884,-209423 -288396,-204718 -289108,-200078 -290017,-195519 -291121,-191055 -292417,-186701 -293903,-182472 -295568,-178401 -297399,-174516 -299389,-170830 -301531,-167353 -303817,-164096 -306241,-161070 -308795,-158285 -311472,-155752 -314253,-153492 -317116,-151521 -320051,-149842 -323049,-148459 -326100,-147377 -329194,-146599 -332321,-146129 -335472,-145972 -338623,-146129 -341750,-146599 -344844,-147377 -347895,-148459 -350893,-149842 -353828,-151521 -356691,-153492 -359472,-155752 -362149,-158285 -364703,-161070 -367127,-164096 -369413,-167353 -371555,-170830 -373545,-174516 -375376,-178401 -377041,-182472 -378527,-186701 -379823,-191055 -380927,-195519 -381836,-200078 -382548,-204718 -383060,-209423 -383368,-214180 -383472,-218972 -383368,-223764 -383060,-228521 -382548,-233226 -381836,-237866 -380927,-242425 -379823,-246889 -378527,-251243 -377041,-255472 -375376,-259543 -373545,-263428 -371555,-267114 -369413,-270591 -367127,-273848 -364703,-276874 -362149,-279659 -359472,-282192 -356691,-284452 -353828,-286423 -350893,-288102 -347895,-289485 -344844,-290567 -341750,-291345 -338623,-291815 -335472,-291972 -332321,-291815 -329194,-291345 -326100,-290567 -323049,-289485 -320051,-288102 -317116,-286423 -314253,-284452 -311472,-282192 -308795,-279659 -306241,-276874 -303817,-273848 -301531,-270591 -299389,-267114 -297399,-263428 -295568,-259543 -293903,-255472 -292417,-251243 -291121,-246889 -290017,-242425 -289108,-237866 -288396,-233226 -287884,-228521 -287576,-223764 -287472,-218972 -287472,-218972 Z"/>
        </g>
       </g>
       <g class="Group">
        <g class="Group">
         <g class="com.sun.star.drawing.ClosedBezierShape">
          <g id="id8">
           <rect class="BoundingBox" stroke="none" fill="none" x="229" y="236" width="543" height="529"/>
           <path fill="rgb(0,0,0)" stroke="none" d="M 338,476 C 295,476 272,477 230,477 230,560 230,644 230,727 259,729 286,722 321,722 426,733 538,782 706,755 741,747 757,705 733,690 759,690 780,617 744,615 778,603 778,530 747,523 776,516 774,444 738,445 682,445 625,445 569,445 635,411 643,346 637,291 625,254 571,215 564,253 548,319 490,364 413,410 386,426 369,476 338,476 Z"/>
           <path fill="none" stroke="rgb(0,0,0)" d="M 338,476 C 295,476 272,477 230,477 L 230,727 C 259,729 286,722 321,722 426,733 538,782 706,755 741,747 757,705 733,690 759,690 780,617 744,615 778,603 778,530 747,523 776,516 774,444 738,445 L 569,445 C 635,411 643,346 637,291 625,254 571,215 564,253 548,319 490,364 413,410 386,426 369,476 338,476 Z"/>
          </g>
         </g>
         <g class="com.sun.star.drawing.LineShape">
          <g id="id9">
           <rect class="BoundingBox" stroke="none" fill="none" x="711" y="522" width="38" height="3"/>
           <path fill="none" stroke="rgb(0,0,0)" d="M 712,523 L 747,523"/>
          </g>
         </g>
         <g class="com.sun.star.drawing.LineShape">
          <g id="id10">
           <rect class="BoundingBox" stroke="none" fill="none" x="711" y="613" width="35" height="4"/>
           <path fill="none" stroke="rgb(0,0,0)" d="M 712,614 L 744,615"/>
          </g>
         </g>
         <g class="com.sun.star.drawing.LineShape">
          <g id="id11">
           <rect class="BoundingBox" stroke="none" fill="none" x="697" y="685" width="38" height="7"/>
           <path fill="none" stroke="rgb(0,0,0)" d="M 698,686 L 733,690"/>
          </g>
         </g>
        </g>
        <g class="com.sun.star.drawing.ClosedBezierShape">
         <g id="id12">
          <rect class="BoundingBox" stroke="none" fill="none" x="73" y="74" width="854" height="853"/>
          <path fill="rgb(0,0,0)" stroke="none" d="M 911,610 C 902,646 888,681 869,713 850,745 827,775 801,801 775,827 745,850 713,869 681,888 646,902 610,911 574,921 537,926 500,926 463,926 426,921 390,911 354,902 319,888 287,869 255,850 225,827 199,801 173,775 150,745 131,713 112,681 98,646 89,610 79,574 74,537 74,500 74,463 79,426 89,390 98,354 112,319 131,287 150,255 173,225 199,199 225,173 255,150 287,131 319,112 354,98 390,89 426,79 463,74 500,74 537,74 574,79 610,89 646,98 681,112 713,131 745,150 775,173 801,199 827,225 850,255 869,287 888,319 902,354 911,390 921,426 926,463 926,500 926,537 921,574 911,610 Z M 822,314 C 806,286 786,260 763,237 740,214 714,194 686,178 658,162 627,149 596,141 565,133 533,128 500,128 467,128 435,133 404,141 373,149 342,162 314,178 286,194 260,214 237,237 214,260 194,286 178,314 162,342 149,373 141,404 133,435 128,467 128,500 128,533 133,565 141,596 149,627 162,658 178,686 194,714 214,740 237,763 260,786 286,806 314,822 342,838 373,851 404,859 435,867 467,872 500,872 533,872 565,867 596,859 627,851 658,838 686,822 714,806 740,786 763,763 786,740 806,714 822,686 838,658 851,627 859,596 867,565 872,533 872,500 872,467 867,435 859,404 851,373 838,342 822,314 Z"/>
         </g>
        </g>
       </g>
      </g>
     </g>
    </g>
   </g>
  </g>
 </g>
</svg>