<?xml version="1.0" encoding="UTF-8"?>
<!DOCTYPE svg PUBLIC "-//W3C//DTD SVG 1.1//EN" "http://www.w3.org/Graphics/SVG/1.1/DTD/svg11.dtd">
<svg version="1.2" width="10mm" height="10mm" viewBox="0 0 1000 1000" preserveAspectRatio="xMidYMid" fill-rule="evenodd" stroke-width="28.222" stroke-linejoin="round" xmlns="http://www.w3.org/2000/svg" xmlns:ooo="http://xml.openoffice.org/svg/export" xmlns:xlink="http://www.w3.org/1999/xlink" xmlns:presentation="http://sun.com/xmlns/staroffice/presentation" xmlns:smil="http://www.w3.org/2001/SMIL20/" xmlns:anim="urn:oasis:names:tc:opendocument:xmlns:animation:1.0" xml:space="preserve">
 <defs class="ClipPathGroup">
  <clipPath id="presentation_clip_path" clipPathUnits="userSpaceOnUse">
   <rect x="0" y="0" width="1000" height="1000"/>
  </clipPath>
  <clipPath id="presentation_clip_path_shrink" clipPathUnits="userSpaceOnUse">
   <rect x="1" y="1" width="998" height="998"/>
  </clipPath>
 </defs>
 <defs class="TextShapeIndex">
  <g ooo:slide="id1" ooo:id-list="id3 id4 id5"/>
 </defs>
 <defs class="EmbeddedBulletChars">
  <g id="bullet-char-template-57356" transform="scale(0.00048828125,-0.00048828125)">
   <path d="M 580,1141 L 1163,571 580,0 -4,571 580,1141 Z"/>
  </g>
  <g id="bullet-char-template-57354" transform="scale(0.00048828125,-0.00048828125)">
   <path d="M 8,1128 L 1137,1128 1137,0 8,0 8,1128 Z"/>
  </g>
  <g id="bullet-char-template-10146" transform="scale(0.00048828125,-0.00048828125)">
   <path d="M 174,0 L 602,739 174,1481 1456,739 174,0 Z M 1358,739 L 309,1346 659,739 1358,739 Z"/>
  </g>
  <g id="bullet-char-template-10132" transform="scale(0.00048828125,-0.00048828125)">
   <path d="M 2015,739 L 1276,0 717,0 1260,543 174,543 174,936 1260,936 717,1481 1274,1481 2015,739 Z"/>
  </g>
  <g id="bullet-char-template-10007" transform="scale(0.00048828125,-0.00048828125)">
   <path d="M 0,-2 C -7,14 -16,27 -25,37 L 356,567 C 262,823 215,952 215,954 215,979 228,992 255,992 264,992 276,990 289,987 310,991 331,999 354,1012 L 381,999 492,748 772,1049 836,1024 860,1049 C 881,1039 901,1025 922,1006 886,937 835,863 770,784 769,783 710,716 594,584 L 774,223 C 774,196 753,168 711,139 L 727,119 C 717,90 699,76 672,76 641,76 570,178 457,381 L 164,-76 C 142,-110 111,-127 72,-127 30,-127 9,-110 8,-76 1,-67 -2,-52 -2,-32 -2,-23 -1,-13 0,-2 Z"/>
  </g>
  <g id="bullet-char-template-10004" transform="scale(0.00048828125,-0.00048828125)">
   <path d="M 285,-33 C 182,-33 111,30 74,156 52,228 41,333 41,471 41,549 55,616 82,672 116,743 169,778 240,778 293,778 328,747 346,684 L 369,508 C 377,444 397,411 428,410 L 1163,1116 C 1174,1127 1196,1133 1229,1133 1271,1133 1292,1118 1292,1087 L 1292,965 C 1292,929 1282,901 1262,881 L 442,47 C 390,-6 338,-33 285,-33 Z"/>
  </g>
  <g id="bullet-char-template-9679" transform="scale(0.00048828125,-0.00048828125)">
   <path d="M 813,0 C 632,0 489,54 383,161 276,268 223,411 223,592 223,773 276,916 383,1023 489,1130 632,1184 813,1184 992,1184 1136,1130 1245,1023 1353,916 1407,772 1407,592 1407,412 1353,268 1245,161 1136,54 992,0 813,0 Z"/>
  </g>
  <g id="bullet-char-template-8226" transform="scale(0.00048828125,-0.00048828125)">
   <path d="M 346,457 C 273,457 209,483 155,535 101,586 74,649 74,723 74,796 101,859 155,911 209,963 273,989 346,989 419,989 480,963 531,910 582,859 608,796 608,723 608,648 583,586 532,535 482,483 420,457 346,457 Z"/>
  </g>
  <g id="bullet-char-template-8211" transform="scale(0.00048828125,-0.00048828125)">
   <path d="M -4,459 L 1135,459 1135,606 -4,606 -4,459 Z"/>
  </g>
  <g id="bullet-char-template-61548" transform="scale(0.00048828125,-0.00048828125)">
   <path d="M 173,740 C 173,903 231,1043 346,1159 462,1274 601,1332 765,1332 928,1332 1067,1274 1183,1159 1299,1043 1357,903 1357,740 1357,577 1299,437 1183,322 1067,206 928,148 765,148 601,148 462,206 346,322 231,437 173,577 173,740 Z"/>
  </g>
 </defs>
 <g>
  <g id="id2" class="Master_Slide">
   <g id="bg-id2" class="Background"/>
   <g id="bo-id2" class="BackgroundObjects"/>
  </g>
 </g>
 <g class="SlideGroup">
  <g>
   <g id="container-id1">
    <g id="id1" class="Slide" clip-path="url(#presentation_clip_path)">
     <g class="Page">
      <g class="Group">
       <g class="com.sun.star.drawing.ClosedBezierShape">
        <g id="id3">
         <rect class="BoundingBox" stroke="none" fill="none" x="206" y="532" width="590" height="374"/>
         <path fill="rgb(0,0,0)" stroke="none" d="M 211,777 L 207,782 C 207,780 207,779 207,777 207,729 220,682 246,640 272,599 309,564 353,540 358,537 363,535 368,533 379,544 391,553 405,561 434,578 467,587 500,587 534,587 567,578 596,561 610,553 622,544 633,533 638,535 643,537 647,540 692,564 729,599 755,640 780,681 794,727 794,774 L 719,843 525,904 401,895 281,841 211,777 Z"/>
         <path fill="none" stroke="rgb(52,101,164)" d="M 211,777 L 207,782 C 207,780 207,779 207,777 207,729 220,682 246,640 272,599 309,564 353,540 358,537 363,535 368,533 379,544 391,553 405,561 434,578 467,587 500,587 534,587 567,578 596,561 610,553 622,544 633,533 638,535 643,537 647,540 692,564 729,599 755,640 780,681 794,727 794,774 L 719,843 525,904 401,895 281,841 211,777 Z"/>
        </g>
       </g>
       <g class="com.sun.star.drawing.CustomShape">
        <g id="id4">
         <rect class="BoundingBox" stroke="none" fill="none" x="350" y="228" width="301" height="301"/>
         <path fill="rgb(0,0,0)" stroke="none" d="M 649,378 C 649,404 642,430 629,453 616,475 597,494 575,507 552,520 526,527 500,527 474,527 448,520 426,507 403,494 384,475 371,453 358,430 351,404 351,378 351,352 358,326 371,304 384,281 403,262 425,249 448,236 474,229 500,229 526,229 552,236 574,249 597,262 616,281 629,303 642,326 649,352 649,378 L 649,378 Z"/>
         <path fill="none" stroke="rgb(52,101,164)" d="M 649,378 C 649,404 642,430 629,453 616,475 597,494 575,507 552,520 526,527 500,527 474,527 448,520 426,507 403,494 384,475 371,453 358,430 351,404 351,378 351,352 358,326 371,304 384,281 403,262 425,249 448,236 474,229 500,229 526,229 552,236 574,249 597,262 616,281 629,303 642,326 649,352 649,378 L 649,378 Z"/>
        </g>
       </g>
       <g class="com.sun.star.drawing.ClosedBezierShape">
        <g id="id5">
         <rect class="BoundingBox" stroke="none" fill="none" x="83" y="83" width="836" height="836"/>
         <path fill="rgb(0,0,0)" stroke="none" d="M 904,609 C 894,644 880,678 862,709 844,741 821,770 796,796 770,821 741,844 709,862 678,880 644,894 609,904 573,913 537,918 500,918 464,918 428,913 392,904 357,894 323,880 292,862 260,844 231,821 205,796 180,770 157,741 139,709 121,678 107,644 97,609 88,573 83,537 83,501 83,464 88,428 97,392 107,357 121,323 139,292 157,260 180,231 205,205 231,180 260,157 292,139 323,121 357,107 392,97 428,88 464,83 500,83 537,83 573,88 609,97 644,107 678,121 709,139 741,157 770,180 796,205 821,231 844,260 862,292 880,323 894,357 904,392 913,428 918,464 918,501 918,537 913,573 904,609 Z M 124,601 C 133,634 146,666 163,696 180,725 201,752 225,776 249,800 276,821 305,838 335,855 367,868 400,877 432,886 466,891 500,891 535,891 569,886 601,877 634,868 666,855 696,838 725,821 752,800 776,776 800,752 821,725 838,696 855,666 868,634 877,601 886,569 891,535 891,501 891,466 886,432 877,400 868,367 855,335 838,305 821,276 800,249 776,225 752,201 725,180 696,163 666,146 634,133 601,124 569,115 535,110 500,110 466,110 432,115 400,124 367,133 335,146 305,163 276,180 249,201 225,225 201,249 180,276 163,305 146,335 133,367 124,400 115,432 110,466 110,501 110,535 115,569 124,601 Z"/>
        </g>
       </g>
      </g>
     </g>
    </g>
   </g>
  </g>
 </g>
</svg>